# xmcd
#
# Track frame offsets:
#	150
#	12348
#	23949
#	34886
#	49342
#	60796
#	73851
#	85530
#	102178
#	115618
#	129387
#
# Disc length: 1966 seconds
#
# Revision: 1
# Processed by: cddbd v1.4PL0 Copyright (c) Steve Scherf et al.
# Submitted via: audiograbber 1.82.02
#
DISCID=8507ac0b
DTITLE=Lightnin' Slim - Rooster Blues
DYEAR=1997
DGENRE=Blues
TTITLE0=Rooster Blues
TTITLE1=Lightning's Bad Luck
TTITLE2=My Babe
TTITLE3=Things I Used To Do
TTITLE4=Bad Luck Blues
TTITLE5=Oh Baby
TTITLE6=G.I. Blues
TTITLE7=Crazy About You Baby
TTITLE8=That's All Right
TTITLE9=Good Morning Heartaches
TTITLE10=Hoodoo Blues
EXTD=
EXTT0=
EXTT1=
EXTT2=
EXTT3=
EXTT4=
EXTT5=
EXTT6=
EXTT7=
EXTT8=
EXTT9=
EXTT10=
PLAYORDER=
